<svg width="1024" height="1024" viewBox="0 0 1024 1024" fill="none" xmlns="http://www.w3.org/2000/svg">
<g clip-path="url(#clip0_478_9)">
<path d="M1024 913.569C1024 974.559 974.56 1024 913.569 1024H110.431C49.4461 1024 0 974.56 0 913.569V253.147C0 233.132 5.43934 213.494 15.7384 196.33L101.368 53.6189L101.371 53.6146C121.325 20.3493 157.277 0 196.059 0H827.941C866.732 0 902.677 20.3523 922.635 53.6152L1008.26 196.33C1018.56 213.494 1024 233.132 1024 253.147V913.569Z" fill="url(#paint0_linear_478_9)"/>
<path d="M491.922 552.157V257.673C491.922 253.328 490.578 249.036 487.642 245.838C462.034 217.985 413.647 210.824 391.529 210.824H291.137C280.049 210.824 271.059 219.813 271.059 230.902V491.922C271.059 503.011 280.049 512 291.137 512H361.412C384.833 512 461.804 522.039 491.922 552.157Z" fill="url(#paint1_linear_478_9)"/>
<path d="M532.078 552.157V257.673C532.078 253.328 533.422 249.036 536.358 245.838C561.966 217.985 610.353 210.824 632.471 210.824H732.863C743.951 210.824 752.941 219.813 752.941 230.902V491.922C752.941 503.011 743.951 512 732.863 512H662.588C639.167 512 562.196 522.039 532.078 552.157Z" fill="url(#paint2_linear_478_9)"/>
<path d="M271.059 552.157C271.059 541.968 278.647 542.027 288.48 542.103L291.137 542.118H361.412C432.476 542.118 487.755 570.858 512 592.314C536.245 570.858 591.525 542.118 662.588 542.118H732.863L734.431 542.11L735.52 542.103C745.353 542.027 752.941 541.968 752.941 552.157C752.941 563.246 743.951 582.275 732.863 582.275H662.588C590.588 582.275 542 618.411 526.196 634.216C518.358 642.056 505.642 642.056 497.804 634.216C482 618.411 433.412 582.275 361.412 582.275H291.137C280.049 582.275 271.059 563.246 271.059 552.157Z" fill="url(#paint3_linear_478_9)"/>
<path fill-rule="evenodd" clip-rule="evenodd" d="M913.569 993.882C957.927 993.882 993.882 957.925 993.882 913.569V253.147C993.882 238.591 989.927 224.309 982.436 211.826L896.809 69.1103C882.294 44.9191 856.152 30.1177 827.941 30.1177H196.059C167.853 30.1177 141.706 44.9191 127.196 69.1103L41.5638 211.826C34.0736 224.309 30.1177 238.591 30.1177 253.147V913.569C30.1177 957.925 66.0785 993.882 110.431 993.882H913.569ZM150.588 110.431C150.588 88.2537 168.569 70.2745 190.745 70.2745H833.255C855.431 70.2745 873.412 88.2537 873.412 110.431V679.602C873.412 698.304 877.765 716.749 886.132 733.477L951.608 864.433C956.564 874.351 952.544 886.412 942.628 891.37C932.706 896.33 920.647 892.309 915.686 882.391L862.059 775.14C855.255 761.534 841.353 752.941 826.142 752.941H197.853C182.647 752.941 168.74 761.534 161.941 775.14L108.314 882.391C103.353 892.309 91.2941 896.33 81.3726 891.37C71.4559 886.412 67.4363 874.351 72.3922 864.433L137.873 733.482C146.235 716.754 150.588 698.309 150.588 679.607V110.431Z" fill="url(#paint4_linear_478_9)"/>
</g>
<defs>
<linearGradient id="paint0_linear_478_9" x1="512" y1="0" x2="512" y2="1024" gradientUnits="userSpaceOnUse">
<stop stop-color="#1A1B26"/>
<stop offset="1" stop-color="#101017"/>
</linearGradient>
<linearGradient id="paint1_linear_478_9" x1="30.1177" y1="30.1177" x2="1003.92" y2="993.882" gradientUnits="userSpaceOnUse">
<stop stop-color="#2AC3DE"/>
<stop offset="1" stop-color="#9ECE6A"/>
</linearGradient>
<linearGradient id="paint2_linear_478_9" x1="30.1177" y1="30.1177" x2="1003.92" y2="993.882" gradientUnits="userSpaceOnUse">
<stop stop-color="#2AC3DE"/>
<stop offset="1" stop-color="#9ECE6A"/>
</linearGradient>
<linearGradient id="paint3_linear_478_9" x1="30.1177" y1="30.1177" x2="1003.92" y2="993.882" gradientUnits="userSpaceOnUse">
<stop stop-color="#2AC3DE"/>
<stop offset="1" stop-color="#9ECE6A"/>
</linearGradient>
<linearGradient id="paint4_linear_478_9" x1="30.1177" y1="30.1177" x2="1003.92" y2="993.882" gradientUnits="userSpaceOnUse">
<stop stop-color="#2AC3DE"/>
<stop offset="1" stop-color="#9ECE6A"/>
</linearGradient>
<clipPath id="clip0_478_9">
<rect width="1024" height="1024" fill="white"/>
</clipPath>
</defs>
</svg>
