<svg width="64" height="64" viewBox="0 0 64 64" fill="none" xmlns="http://www.w3.org/2000/svg">
<path d="M35.032 8.16147C34.3234 7.85612 33.5027 7.99071 32.9338 8.507L8.62799 30.5871C8.22719 30.9507 8 31.4623 8 32C8 32.5378 8.22719 33.0494 8.62799 33.413L32.9338 55.493C33.2993 55.8252 33.772 56 34.2501 56C34.5139 56 34.7798 55.9471 35.032 55.8387C35.7373 55.5327 36 54.9235 36 54.1615V40H54C55.0736 40 56 39.0594 56 38V26C56 24.9399 55.0729 24 54 24H36V10C36 9.23795 35.7373 8.46752 35.032 8.16147Z" fill="white"/>
</svg>
