<svg width="112" height="64" viewBox="0 0 112 64" fill="none" xmlns="http://www.w3.org/2000/svg">
<path d="M57 32C57 45.2548 67.7452 56 81 56C94.2548 56 105 45.2548 105 32C105 18.7452 94.2548 8 81 8C67.7452 8 57 18.7452 57 32ZM92.9981 33.1894C92.6892 36.2236 91.2393 39.0271 88.9418 41.0326C86.6442 43.0383 83.6705 44.0965 80.6224 43.9931C77.5744 43.8897 74.6793 42.6323 72.5232 40.4754C70.3668 38.3184 69.1104 35.4228 69.0078 32.3748C68.9053 29.3266 69.9642 26.3534 71.9707 24.0564C73.9772 21.7595 76.7812 20.3104 79.8153 20.0024C80.0011 19.9818 80.1759 20.0942 80.2342 20.2718C80.2924 20.4494 80.2181 20.6435 80.0562 20.7369C78.4984 21.6657 77.2613 23.0478 76.5103 24.6985C75.7593 26.3494 75.5302 28.1901 75.8536 29.9746C76.1771 31.7591 77.0376 33.4023 78.3203 34.6846C79.6029 35.9668 81.2466 36.8268 83.0312 37.1496C84.8159 37.4725 86.6565 37.2429 88.3073 36.4913C89.9578 35.7397 91.3395 34.5021 92.2677 32.9441C92.3633 32.7871 92.5544 32.7168 92.7288 32.7743C92.9032 32.8318 93.0148 33.0019 92.9983 33.185L92.9981 33.1894Z" fill="white"/>
<path d="M55.6183 16H31C22.1634 16 15 23.1634 15 32C15 40.8366 22.1634 48 31 48H55.6183C52.693 43.3692 51 37.8823 51 32C51 26.1177 52.693 20.6308 55.6183 16Z" fill="white"/>
</svg>
