<svg width="64" height="64" viewBox="0 0 64 64" fill="none" xmlns="http://www.w3.org/2000/svg">
<path d="M8.62414 29.3081L28.4483 7.57151C30.3527 5.47617 33.6473 5.47616 35.5517 7.57151L41.6 14.1515V9.59045C41.6 8.92757 42.1373 8.39019 42.8 8.39019H50C50.6627 8.39019 51.2 8.92757 51.2 9.59045V24.7137L55.3759 29.3081C55.7775 29.75 56 30.3257 56 30.9229V52C56 53.3258 55.3255 54 54 54H38C37.3373 54 36.8 53.4626 36.8 52.7997V39.5969C36.8 38.934 36.2627 38.3966 35.6 38.3966H28.4C27.7373 38.3966 27.2 38.934 27.2 39.5969V52.7997C27.2 53.4626 26.6627 54 26 54H10C8.67452 54 8 53.3258 8 52V30.9229C8 30.3257 8.22253 29.75 8.62414 29.3081Z" fill="white"/>
</svg>
