<svg width="112" height="64" viewBox="0 0 112 64" fill="none" xmlns="http://www.w3.org/2000/svg">
<path d="M55 32C55 45.2548 44.2548 56 31 56C17.7452 56 7 45.2548 7 32C7 18.7452 17.7452 8 31 8C44.2548 8 55 18.7452 55 32ZM30.9832 22.98C31.8936 22.98 32.6355 22.2382 32.6355 21.2941V17.6523C32.6355 16.7418 31.8936 16 30.9832 16C30.0727 16 29.3308 16.7418 29.3308 17.6523V21.3276C29.3308 22.2382 30.0727 22.98 30.9832 22.98ZM37.8957 32.0168C37.8957 28.2065 34.7935 25.1044 30.9832 25.1044C27.1729 25.1044 24.0706 28.2065 24.0706 32.0168C24.0706 35.8271 27.1729 38.9293 30.9832 38.9293C34.7935 38.9293 37.8957 35.8271 37.8957 32.0168ZM39.7165 25.6438L42.3127 23.0474C42.9534 22.4067 42.9534 21.3278 42.3127 20.687C41.672 20.0464 40.5931 20.0464 39.9524 20.687L37.3559 23.2836C36.7152 23.9242 36.7152 25.0031 37.3559 25.6438C37.6932 25.9473 38.0977 26.1158 38.5362 26.1158C38.9747 26.1158 39.3792 25.9811 39.7165 25.6438ZM40.02 32.0168C40.02 32.9274 40.7618 33.6692 41.706 33.6692H45.3477C46.2582 33.6692 47 32.9274 47 32.0168C47 31.1063 46.2582 30.3645 45.3477 30.3645H41.6723C40.7618 30.3645 40.02 31.1063 40.02 32.0168ZM39.7165 38.3898C39.0758 37.7491 38.0305 37.7491 37.3559 38.3898C36.7152 39.0305 36.7152 40.1094 37.3559 40.7501L39.9524 43.3466C40.2897 43.65 40.6942 43.8186 41.1327 43.8186C41.5712 43.8186 41.9757 43.6838 42.313 43.3466C42.9537 42.7059 42.9537 41.627 42.313 40.9863L39.7165 38.3898ZM30.9832 41.0537C30.0727 41.0537 29.3308 41.7955 29.3308 42.7059V46.3477C29.3308 47.2582 30.0727 48 30.9832 48C31.8936 48 32.6355 47.2582 32.6355 46.3477V42.7059C32.6355 41.7955 31.8936 41.0537 30.9832 41.0537ZM22.2498 38.3898L19.653 40.9863C19.0123 41.627 19.0123 42.7058 19.653 43.3466C19.9904 43.65 20.3949 43.8186 20.8333 43.8186C21.2718 43.8186 21.6764 43.6838 22.0136 43.3466L24.6101 40.7501C25.2509 40.1095 25.2508 39.0305 24.6101 38.3898C23.9695 37.7491 22.8905 37.7491 22.2498 38.3898ZM16.6187 30.3646C15.7082 30.3646 15 31.1064 15 32.0168C15 32.9274 15.7419 33.6692 16.6523 33.6692H20.294C21.2045 33.6692 21.9464 32.9274 21.9464 32.0168C21.9464 31.1064 21.2045 30.3646 20.294 30.3646H16.6187ZM23.4299 26.116C23.8347 26.116 24.2729 25.9473 24.61 25.6438C25.2507 25.0032 25.2507 23.9243 24.61 23.2836L22.0135 20.6871C21.3729 20.0464 20.294 20.0464 19.6532 20.6871C19.0125 21.3278 19.0125 22.4066 19.6532 23.0474L22.2497 25.6438C22.587 25.9473 22.9915 26.1158 23.4299 26.116Z" fill="white"/>
<path d="M56.3818 48C59.307 43.3692 61 37.8823 61 32C61 26.1177 59.307 20.6308 56.3818 16H81C89.8366 16 97 23.1634 97 32C97 40.8366 89.8366 48 81 48H56.3818Z" fill="white"/>
</svg>
