<svg width="64" height="64" viewBox="0 0 64 64" fill="none" xmlns="http://www.w3.org/2000/svg">
<path d="M45.2191 8C48.0793 8 50.8245 9.21171 52.8446 11.3662L52.8396 11.3743C54.8623 13.5287 55.9999 16.4502 55.9999 19.4969C55.9999 22.5461 54.8623 25.4676 52.8396 27.6194L50.977 29.6115L42.6563 38.4745C40.6337 40.6317 37.891 41.8434 35.0308 41.8434C32.168 41.8434 29.4254 40.6317 27.4027 38.4745C26.3326 37.2361 26.3701 35.3213 27.4877 34.1309C28.6028 32.9404 30.4029 32.9031 31.563 34.043C33.5056 36.0137 36.5559 36.0137 38.496 34.043L46.8167 25.18L48.6843 23.1826C50.5945 21.1426 50.5945 17.8404 48.6843 15.7977C46.7468 13.827 43.694 13.827 41.7539 15.7977L37.516 20.3118C35.7384 19.0148 33.7182 18.1413 31.5956 17.7498L37.5935 11.3662C39.6162 9.21171 42.3589 8 45.2191 8Z" fill="white"/>
<path d="M37.1755 26.4905C37.298 26.7675 37.3756 27.0631 37.4081 27.3694C37.4131 27.4279 37.4128 27.4864 37.4078 27.545C37.4353 27.8593 37.4178 28.1788 37.3553 28.4878V28.5277C37.2353 29.0923 36.9653 29.6116 36.5802 30.0217C36.0302 30.6103 35.2827 30.9406 34.5001 30.9406C33.72 30.9406 32.9725 30.6103 32.4199 30.0217C31.2723 28.7967 29.6297 28.2614 28.037 28.5889C27.712 28.6449 27.392 28.7354 27.082 28.8606C26.4844 29.1216 25.9394 29.5051 25.4818 29.9924H25.4843L15.3184 40.821C13.4133 42.8635 13.4133 46.1605 15.3184 48.2031C17.2586 50.1739 20.3088 50.1739 22.2514 48.2031L26.4818 43.6971C28.2563 44.9962 30.2757 45.8696 32.4001 46.2613L26.4118 52.6346C23.6871 55.5375 19.714 56.6693 15.9937 55.6094C12.271 54.5465 9.36322 51.4495 8.36814 47.4841C7.37055 43.5216 8.43316 39.2898 11.1584 36.3897L21.3294 25.5557C23.352 23.4012 26.0948 22.1921 28.9549 22.1921C31.8151 22.1921 34.5578 23.4012 36.5805 25.5557C36.8005 25.7901 36.9805 26.0617 37.118 26.36C37.143 26.3999 37.1605 26.4452 37.1755 26.4905Z" fill="white"/>
<path d="M32.4001 46.2613L32.4023 46.2617V46.259L32.4001 46.2613Z" fill="white"/>
</svg>
