<svg width="64" height="64" viewBox="0 0 64 64" fill="none" xmlns="http://www.w3.org/2000/svg">
<path d="M38 8C36.8954 8 36 8.89542 36 10V12C36 13.1046 36.8954 14 38 14H46L30.4142 29.5858C29.6331 30.3668 29.6331 31.6332 30.4142 32.4142L31.5857 33.5858C32.3668 34.3668 33.6331 34.3668 34.4142 33.5858L50 18V26C50 27.1046 50.8954 28 52 28H54C55.1045 28 56 27.1046 56 26V10C56 8.89542 55.1045 8 54 8H38Z" fill="white"/>
<path d="M10 16C8.89539 16 8 16.8954 8 18V54C8 55.1046 8.89539 56 10 56H46C47.1046 56 48 55.1046 48 54V36C48 34.8954 47.1046 34 46 34H44C42.8954 34 42 34.8954 42 36V50H14V22H28C29.1046 22 30 21.1046 30 20V18C30 16.8954 29.1046 16 28 16H10Z" fill="white"/>
</svg>
