<svg width="64" height="64" viewBox="0 0 64 64" fill="none" xmlns="http://www.w3.org/2000/svg">
<path d="M31 34V19.3333C31 19.1169 30.9332 18.9031 30.7869 18.7439C29.5115 17.3567 27.1017 17 26 17H21C20.4478 17 20 17.4477 20 18V31C20 31.5523 20.4478 32 21 32H24.5C25.6666 32 29.5 32.5 31 34Z" fill="white"/>
<path d="M33 34V19.3333C33 19.1169 33.0668 18.9031 33.2131 18.7439C34.4885 17.3567 36.8983 17 38 17H43C43.5522 17 44 17.4477 44 18V31C44 31.5523 43.5522 32 43 32H39.5C38.3334 32 34.5 32.5 33 34Z" fill="white"/>
<path d="M20.8677 33.4993C20.3779 33.4955 20 33.4926 20 34C20 34.5523 20.4478 35.5 21 35.5H24.5C28.0858 35.5 30.5057 37.2997 31.2928 38.0869C31.6833 38.4774 32.3167 38.4774 32.7072 38.0869C33.4943 37.2997 35.9142 35.5 39.5 35.5H43C43.5522 35.5 44 34.5523 44 34C44 33.4926 43.6221 33.4955 43.1323 33.4993L43.078 33.4996L43 33.5H39.5C35.9607 33.5 33.2076 34.9314 32 36C30.7924 34.9314 28.0393 33.5 24.5 33.5H21C20.9552 33.5 20.911 33.4996 20.8677 33.4993Z" fill="white"/>
<path d="M56 52C56 54.2092 54.2092 56 52 56H12C9.79089 56 8 54.2092 8 52V19.1079C8 18.3829 8.19702 17.6716 8.57007 17.0499L12.8348 9.94202C13.5577 8.73718 14.8597 8 16.2648 8H47.7354C49.1404 8 50.4424 8.73718 51.1653 9.94202L55.4299 17.0499C55.803 17.6716 56 18.3829 56 19.1079V52ZM16 10C14.8954 10 14 10.8954 14 12V40.3476C14 41.2791 13.7831 42.1977 13.3666 43.0308L10.1056 49.5528C9.85864 50.0468 10.0588 50.6475 10.5527 50.8944C11.0468 51.1414 11.6475 50.9412 11.8944 50.4472L14.5653 45.1056C14.9041 44.428 15.5966 44 16.3541 44H47.6458C48.4033 44 49.0957 44.428 49.4346 45.1056L52.1055 50.4472C52.3525 50.9412 52.9531 51.1414 53.4473 50.8944C53.9412 50.6475 54.1414 50.0468 53.8945 49.5528L50.6335 43.0306C50.2168 42.1974 50 41.2788 50 40.3474V12C50 10.8954 49.1045 10 48 10H16Z" fill="white"/>
</svg>
